<?xml version="1.0" encoding="UTF-8" standalone="no"?>
<!-- Created with Inkscape (http://www.inkscape.org/) -->

<svg
   xmlns:dc="http://purl.org/dc/elements/1.1/"
   xmlns:cc="http://creativecommons.org/ns#"
   xmlns:rdf="http://www.w3.org/1999/02/22-rdf-syntax-ns#"
   xmlns:svg="http://www.w3.org/2000/svg"
   xmlns="http://www.w3.org/2000/svg"
   xmlns:sodipodi="http://sodipodi.sourceforge.net/DTD/sodipodi-0.dtd"
   xmlns:inkscape="http://www.inkscape.org/namespaces/inkscape"
   width="389.15866"
   height="72.927338"
   id="svg2"
   version="1.1"
   inkscape:version="0.48.4 r9939"
   sodipodi:docname="logo.svg">
  <defs
     id="defs4" />
  <sodipodi:namedview
     id="base"
     pagecolor="#ffffff"
     bordercolor="#666666"
     borderopacity="1.0"
     inkscape:pageopacity="0.0"
     inkscape:pageshadow="2"
     inkscape:zoom="2.8"
     inkscape:cx="199.05108"
     inkscape:cy="-7.837535"
     inkscape:document-units="px"
     inkscape:current-layer="layer1"
     showgrid="false"
     inkscape:window-width="1920"
     inkscape:window-height="1004"
     inkscape:window-x="0"
     inkscape:window-y="24"
     inkscape:window-maximized="1"
     fit-margin-top="0"
     fit-margin-left="0"
     fit-margin-right="0"
     fit-margin-bottom="0" />
  <metadata
     id="metadata7">
    <rdf:RDF>
      <cc:Work
         rdf:about="">
        <dc:format>image/svg+xml</dc:format>
        <dc:type
           rdf:resource="http://purl.org/dc/dcmitype/StillImage" />
        <dc:title></dc:title>
      </cc:Work>
    </rdf:RDF>
  </metadata>
  <g
     inkscape:label="Layer 1"
     inkscape:groupmode="layer"
     id="layer1"
     transform="translate(-5.3903488,-823.5391)">
    <path
       sodipodi:type="arc"
       style="fill:#ffffff;fill-opacity:0;stroke:#2b0000;stroke-width:0.30000001;stroke-miterlimit:4;stroke-opacity:1;stroke-dasharray:0.3, 0.9;stroke-dashoffset:0"
       id="path3017"
       sodipodi:cx="212.5"
       sodipodi:cy="116.25"
       sodipodi:rx="51.07143"
       sodipodi:ry="51.07143"
       d="m 263.57143,116.25 c 0,28.20597 -22.86546,51.07143 -51.07143,51.07143 -28.20597,0 -51.07143,-22.86546 -51.07143,-51.07143 0,-28.205972 22.86546,-51.07143 51.07143,-51.07143 28.20597,0 51.07143,22.865458 51.07143,51.07143 z"
       transform="matrix(0.44577189,0,0,0.44577189,254.02362,794.55119)" />
    <path
       transform="matrix(0.44577189,0,0,0.44577189,276.9894,821.81238)"
       sodipodi:type="arc"
       style="fill:#ffffff;fill-opacity:0;stroke:#2b0000;stroke-width:0.30000001;stroke-miterlimit:4;stroke-opacity:1;stroke-dasharray:0.3, 0.9;stroke-dashoffset:0"
       id="path3017-0"
       sodipodi:cx="212.5"
       sodipodi:cy="116.25"
       sodipodi:rx="51.07143"
       sodipodi:ry="51.07143"
       d="m 263.57143,116.25 c 0,28.20597 -22.86546,51.07143 -51.07143,51.07143 -28.20597,0 -51.07143,-22.86546 -51.07143,-51.07143 0,-28.205972 22.86546,-51.07143 51.07143,-51.07143 28.20597,0 51.07143,22.865458 51.07143,51.07143 z" />
    <path
       sodipodi:type="arc"
       style="fill:#000000;fill-opacity:1;stroke:#2b0000;stroke-width:0.30000001;stroke-miterlimit:4;stroke-opacity:1;stroke-dasharray:0.3, 0.9;stroke-dashoffset:0"
       id="path3810"
       sodipodi:cx="209.64285"
       sodipodi:cy="67.678574"
       sodipodi:rx="2.1428571"
       sodipodi:ry="2.1428571"
       d="m 211.78571,67.678574 c 0,1.183467 -0.95939,2.142857 -2.14286,2.142857 -1.18346,0 -2.14285,-0.95939 -2.14285,-2.142857 0,-1.183468 0.95939,-2.142857 2.14285,-2.142857 1.18347,0 2.14286,0.959389 2.14286,2.142857 z"
       transform="matrix(0.44577189,0,0,0.44577189,277.44388,820.4071)" />
    <path
       sodipodi:type="arc"
       style="fill:#000000;fill-opacity:1;stroke:#2b0000;stroke-width:0.30000001;stroke-miterlimit:4;stroke-opacity:1;stroke-dasharray:0.3, 0.9;stroke-dashoffset:0"
       id="path3810-2"
       sodipodi:cx="209.64285"
       sodipodi:cy="67.678574"
       sodipodi:rx="2.1428571"
       sodipodi:ry="2.1428571"
       d="m 211.78571,67.678574 c 0,1.183467 -0.95939,2.142857 -2.14286,2.142857 -1.18346,0 -2.14285,-0.95939 -2.14285,-2.142857 0,-1.183468 0.95939,-2.142857 2.14285,-2.142857 1.18347,0 2.14286,0.959389 2.14286,2.142857 z"
       transform="matrix(0.44577189,0,0,0.44577189,255.46023,839.26)" />
    <text
       xml:space="preserve"
       style="font-size:58.87477112px;font-style:normal;font-variant:normal;font-weight:normal;font-stretch:normal;text-align:start;line-height:125%;letter-spacing:0px;word-spacing:0px;writing-mode:lr-tb;text-anchor:start;fill:#000000;fill-opacity:1;stroke:none;font-family:Latin Modern Sans Quotation;-inkscape-font-specification:Latin Modern Sans Quotation"
       x="3.5652308"
       y="878.79449"
       id="text3830"
       sodipodi:linespacing="125%"><tspan
         sodipodi:role="line"
         id="tspan3832"
         x="3.5652308"
         y="878.79449">VALENCE</tspan></text>
    <path
       sodipodi:type="arc"
       style="fill:#000000;fill-opacity:1;stroke:#2b0000;stroke-width:4;stroke-miterlimit:4;stroke-dasharray:none"
       id="path2989-2-6"
       sodipodi:cx="109.64286"
       sodipodi:cy="104.64286"
       sodipodi:rx="13.571428"
       sodipodi:ry="13.571428"
       d="m 123.21429,104.64286 c 0,7.49529 -6.07614,13.57143 -13.57143,13.57143 -7.49529,0 -13.571428,-6.07614 -13.571428,-13.57143 0,-7.495292 6.076138,-13.571428 13.571428,-13.571428 7.49529,0 13.57143,6.076136 13.57143,13.571428 z"
       transform="matrix(0.23172192,0,0,0.23172192,323.51203,821.20044)" />
    <path
       sodipodi:type="arc"
       style="fill:#000000;fill-opacity:1;stroke:#2b0000;stroke-width:4;stroke-miterlimit:4;stroke-dasharray:none"
       id="path2989-2-6-4"
       sodipodi:cx="109.64286"
       sodipodi:cy="104.64286"
       sodipodi:rx="13.571428"
       sodipodi:ry="13.571428"
       d="m 123.21429,104.64286 c 0,7.49529 -6.07614,13.57143 -13.57143,13.57143 -7.49529,0 -13.571428,-6.07614 -13.571428,-13.57143 0,-7.495292 6.076138,-13.571428 13.571428,-13.571428 7.49529,0 13.57143,6.076136 13.57143,13.571428 z"
       transform="matrix(0.23172192,0,0,0.23172192,346.37907,849.36414)" />
  </g>
</svg>
